<svg width="400" height="88" viewBox="0 0 400 88" fill="none" xmlns="http://www.w3.org/2000/svg">
<path d="M54.06 74.73H49.585C52.995 71.15 56.04 65.875 56.035 58.445C56.025 44.73 48.09 44.16 50.6 34.305C50.645 34.125 50.5 33.89 50.325 33.945C44.605 35.745 42.49 42.82 42.09 42.82C42.78 32.095 41.205 18.71 28.185 6.21001C27.99 6.02001 27.665 6.21001 27.73 6.47501C31.5 22.28 25.85 32.625 22.09 34.52C20.06 27.025 14.44 24.98 12.795 25.075C12.63 25.085 12.53 25.25 12.575 25.41C16.125 37.76 6.00002 43.15 6.01002 57.145C6.01502 65.37 9.08502 71 12.515 74.725H7.98502C7.67002 74.725 7.41502 74.98 7.41502 75.295V80.82C7.41502 81.135 7.67002 81.39 7.98502 81.39H23.23L22.86 81.06C15.125 73.435 14.045 57.635 27.235 47.64C27.44 47.485 27.74 47.66 27.69 47.915C26.015 56.74 27.495 62.42 31.77 67.24C35.17 63.99 38 57.72 38.68 56.135C38.755 55.955 38.99 55.905 39.135 56.04C48.345 64.625 43.425 77.185 40.255 81.06L39.905 81.39H54.065C54.38 81.39 54.635 81.135 54.635 80.82V75.295C54.625 74.98 54.37 74.73 54.06 74.73Z" fill="#FF6C33"/>
<path d="M319.305 52.15C318.375 49.495 317.06 47.235 315.355 45.365C313.645 43.5 311.585 42.05 309.17 41.03C306.76 40.005 304.06 39.49 301.09 39.49C298.115 39.49 295.43 40.005 293.04 41.03C290.65 42.05 288.605 43.5 286.9 45.365C285.19 47.235 283.875 49.49 282.945 52.15C282.015 54.805 281.555 57.765 281.555 61.025C281.555 64.285 282.015 67.225 282.945 69.855C283.875 72.485 285.19 74.73 286.9 76.6C288.605 78.47 290.65 79.9 293.04 80.895C295.43 81.895 298.11 82.395 301.09 82.395C304.06 82.395 306.76 81.895 309.17 80.895C311.585 79.9 313.645 78.47 315.355 76.6C317.06 74.73 318.375 72.485 319.305 69.855C320.23 67.225 320.695 64.285 320.695 61.025C320.695 57.765 320.225 54.805 319.305 52.15ZM309.095 65.795C308.83 67.35 308.375 68.745 307.73 69.975C307.085 71.215 306.215 72.195 305.125 72.935C304.04 73.67 302.69 74.035 301.09 74.035C299.495 74.035 298.16 73.665 297.09 72.935C296.025 72.195 295.17 71.215 294.525 69.975C293.88 68.74 293.425 67.345 293.155 65.795C292.89 64.245 292.755 62.655 292.755 61.025C292.755 59.395 292.89 57.79 293.155 56.215C293.42 54.64 293.875 53.245 294.525 52.035C295.165 50.83 296.025 49.84 297.09 49.08C298.16 48.32 299.495 47.935 301.09 47.935C302.69 47.935 304.04 48.32 305.125 49.08C306.215 49.84 307.085 50.83 307.73 52.035C308.37 53.245 308.825 54.64 309.095 56.215C309.365 57.79 309.495 59.395 309.495 61.025C309.495 62.655 309.365 64.245 309.095 65.795Z" fill="#1F1914"/>
<path d="M205.81 52.15C204.88 49.495 203.565 47.235 201.86 45.365C200.15 43.5 198.09 42.05 195.675 41.03C193.265 40.005 190.565 39.49 187.595 39.49C184.62 39.49 181.935 40.005 179.545 41.03C177.155 42.05 175.11 43.5 173.405 45.365C171.695 47.235 170.38 49.49 169.45 52.15C168.525 54.805 168.06 57.765 168.06 61.025C168.06 64.285 168.525 67.225 169.45 69.855C170.38 72.485 171.695 74.73 173.405 76.6C175.11 78.47 177.155 79.9 179.545 80.895C181.935 81.895 184.615 82.395 187.595 82.395C190.565 82.395 193.265 81.895 195.675 80.895C198.09 79.9 200.15 78.47 201.86 76.6C203.565 74.73 204.88 72.485 205.81 69.855C206.735 67.225 207.2 64.285 207.2 61.025C207.2 57.765 206.73 54.805 205.81 52.15ZM195.6 65.795C195.335 67.35 194.88 68.745 194.235 69.975C193.59 71.215 192.72 72.195 191.635 72.935C190.545 73.67 189.195 74.035 187.595 74.035C186 74.035 184.665 73.665 183.6 72.935C182.53 72.195 181.67 71.215 181.03 69.975C180.385 68.74 179.93 67.345 179.66 65.795C179.395 64.245 179.26 62.655 179.26 61.025C179.26 59.395 179.395 57.79 179.66 56.215C179.925 54.64 180.38 53.245 181.03 52.035C181.67 50.83 182.53 49.84 183.6 49.08C184.665 48.32 186 47.935 187.595 47.935C189.195 47.935 190.545 48.32 191.635 49.08C192.72 49.84 193.59 50.83 194.235 52.035C194.875 53.245 195.33 54.64 195.6 56.215C195.87 57.79 196 59.395 196 61.025C196 62.655 195.87 64.245 195.6 65.795Z" fill="#1F1914"/>
<path d="M150.555 52.15C149.625 49.495 148.305 47.235 146.6 45.365C144.895 43.5 142.835 42.05 140.42 41.03C138.01 40.005 135.31 39.49 132.335 39.49C129.365 39.49 126.68 40.005 124.295 41.03C121.905 42.05 119.855 43.5 118.15 45.365C116.445 47.235 115.125 49.49 114.2 52.15C113.27 54.805 112.81 57.765 112.81 61.025C112.81 64.285 113.27 67.225 114.2 69.855C115.125 72.485 116.445 74.73 118.15 76.6C119.855 78.47 121.91 79.9 124.295 80.895C126.685 81.895 129.365 82.395 132.335 82.395C135.31 82.395 138.01 81.895 140.42 80.895C142.835 79.9 144.895 78.47 146.6 76.6C148.305 74.73 149.625 72.485 150.555 69.855C151.48 67.225 151.945 64.285 151.945 61.025C151.945 57.765 151.475 54.805 150.555 52.15ZM140.345 65.795C140.08 67.35 139.625 68.745 138.975 69.975C138.33 71.215 137.465 72.195 136.375 72.935C135.285 73.67 133.94 74.035 132.34 74.035C130.74 74.035 129.41 73.665 128.34 72.935C127.275 72.195 126.42 71.215 125.77 69.975C125.125 68.74 124.675 67.345 124.4 65.795C124.135 64.245 124.005 62.655 124.005 61.025C124.005 59.395 124.135 57.79 124.4 56.215C124.67 54.64 125.12 53.245 125.77 52.035C126.415 50.83 127.275 49.84 128.34 49.08C129.41 48.32 130.74 47.935 132.34 47.935C133.94 47.935 135.285 48.32 136.375 49.08C137.465 49.84 138.33 50.83 138.975 52.035C139.62 53.245 140.075 54.64 140.345 56.215C140.61 57.79 140.745 59.395 140.745 61.025C140.745 62.655 140.61 64.245 140.345 65.795Z" fill="#1F1914"/>
<path d="M357.9 40.985L344.3 81.165C344.26 81.285 344.15 81.365 344.025 81.365H331.98C331.855 81.365 331.745 81.285 331.705 81.17L317.955 40.99C317.89 40.8 318.03 40.605 318.23 40.605H329.365C329.495 40.605 329.605 40.69 329.645 40.81L338.175 68.435H338.33L346 43.59C346.035 43.45 346.07 43.315 346.12 43.19C346.585 41.685 348.005 40.595 349.665 40.595H357.625C357.825 40.6 357.965 40.795 357.9 40.985Z" fill="#1F1914"/>
<path d="M165.57 28.795V81.075C165.57 81.235 165.44 81.365 165.28 81.365H154.66C154.5 81.365 154.37 81.235 154.37 81.075V25.645C154.37 25.325 154.63 25.065 154.95 25.065H161.835C163.89 25.06 165.57 26.74 165.57 28.795Z" fill="#1F1914"/>
<path d="M374.455 38.63C360.65 38.63 354.865 50.66 354.865 60.595C354.865 72.28 361.39 82.395 375.315 82.395C387.84 82.395 393.3 73.57 393.52 68.775C393.53 68.61 393.395 68.475 393.23 68.475H383.415C383.285 68.475 383.17 68.56 383.135 68.68C382.505 70.725 381.045 73.865 374.825 73.865C367.905 73.865 366.62 67.03 366.46 63.325L393.7 63.365C393.865 63.37 394 63.235 393.995 63.075C393.94 51.965 390.195 38.63 374.455 38.63ZM366.7 56.09C366.7 51.32 370.195 47.24 374.975 47.24C380.475 47.24 383.2 52.58 383.2 56.09H366.7Z" fill="#1F1914"/>
<path d="M255.83 63.13C255.08 61.815 254.085 60.72 252.855 59.835C251.62 58.95 250.215 58.24 248.63 57.7C247.05 57.17 245.425 56.71 243.765 56.33C242.16 55.955 240.57 55.61 239.02 55.285C237.46 54.965 236.08 54.6 234.875 54.2C233.67 53.8 232.685 53.27 231.935 52.63C231.185 51.985 230.81 51.155 230.81 50.135C230.81 49.275 231.02 48.595 231.45 48.08C231.88 47.57 232.405 47.185 233.02 46.91C233.64 46.645 234.325 46.47 235.075 46.39C235.825 46.31 236.525 46.27 237.165 46.27C239.2 46.27 240.97 46.655 242.475 47.43C243.915 48.18 244.74 49.58 244.945 51.635C244.96 51.78 245.08 51.9 245.235 51.9H255.51C255.685 51.9 255.82 51.75 255.805 51.58C255.565 49.145 254.915 47.12 253.86 45.505C252.765 43.815 251.38 42.46 249.715 41.445C248.055 40.425 246.165 39.7 244.045 39.275C241.925 38.845 239.74 38.63 237.49 38.63C235.235 38.63 233.035 38.83 230.89 39.235C228.745 39.635 226.81 40.335 225.095 41.325C223.38 42.32 222 43.675 220.95 45.39C219.905 47.105 219.38 49.305 219.38 51.985C219.38 53.81 219.755 55.35 220.51 56.61C221.26 57.87 222.25 58.92 223.485 59.75C224.72 60.58 226.125 61.255 227.71 61.76C229.29 62.27 230.915 62.715 232.575 63.09C236.65 63.95 239.83 64.805 242.105 65.665C244.385 66.525 245.525 67.81 245.525 69.525C245.525 70.545 245.285 71.39 244.805 72.06C244.32 72.73 243.72 73.265 242.99 73.665C242.27 74.065 241.465 74.365 240.58 74.55C239.695 74.74 238.85 74.83 238.045 74.83C236.92 74.83 235.835 74.695 234.785 74.43C233.74 74.165 232.815 73.745 232.01 73.18C231.205 72.62 230.55 71.895 230.04 71.01C229.57 70.195 229.32 69.23 229.28 68.12C229.275 67.965 229.15 67.83 228.99 67.83H218.72C218.55 67.83 218.415 67.97 218.425 68.14C218.565 70.79 219.19 73.005 220.305 74.785C221.455 76.635 222.93 78.125 224.725 79.255C226.52 80.38 228.575 81.185 230.885 81.665C233.19 82.15 235.55 82.395 237.96 82.395C240.32 82.395 242.64 82.16 244.92 81.71C247.2 81.255 249.225 80.46 250.99 79.33C252.76 78.205 254.2 76.72 255.295 74.865C256.39 73.02 256.945 70.72 256.945 67.99C256.955 66.07 256.585 64.445 255.83 63.13Z" fill="#1F1914"/>
<path d="M110.025 63.13C109.27 61.815 108.28 60.72 107.05 59.835C105.81 58.95 104.405 58.24 102.825 57.7C101.24 57.17 99.615 56.71 97.955 56.33C96.35 55.955 94.765 55.61 93.21 55.285C91.655 54.965 90.28 54.6 89.065 54.2C87.86 53.8 86.88 53.27 86.125 52.63C85.375 51.985 85 51.155 85 50.135C85 49.275 85.215 48.595 85.645 48.08C86.075 47.57 86.595 47.185 87.215 46.91C87.83 46.645 88.515 46.47 89.26 46.39C90.01 46.31 90.71 46.27 91.355 46.27C93.39 46.27 95.16 46.655 96.66 47.43C98.1 48.18 98.925 49.58 99.13 51.635C99.145 51.78 99.27 51.9 99.42 51.9H109.7C109.87 51.9 110.005 51.75 109.99 51.58C109.75 49.145 109.1 47.12 108.05 45.505C106.95 43.815 105.57 42.46 103.905 41.445C102.24 40.425 100.35 39.7 98.23 39.275C96.11 38.845 93.93 38.63 91.675 38.63C89.42 38.63 87.22 38.83 85.075 39.235C82.93 39.635 80.995 40.335 79.28 41.325C77.565 42.32 76.185 43.675 75.135 45.39C74.09 47.105 73.565 49.305 73.565 51.985C73.565 53.81 73.94 55.35 74.695 56.61C75.445 57.87 76.44 58.92 77.67 59.75C78.905 60.58 80.31 61.255 81.895 61.76C83.475 62.27 85.1 62.715 86.76 63.09C90.84 63.95 94.015 64.805 96.295 65.665C98.57 66.525 99.71 67.81 99.71 69.525C99.71 70.545 99.47 71.39 98.99 72.06C98.505 72.73 97.905 73.265 97.18 73.665C96.45 74.065 95.65 74.365 94.765 74.55C93.88 74.74 93.04 74.83 92.235 74.83C91.105 74.83 90.02 74.695 88.975 74.43C87.925 74.165 87.005 73.745 86.195 73.18C85.39 72.62 84.735 71.895 84.225 71.01C83.76 70.195 83.505 69.23 83.465 68.12C83.46 67.965 83.335 67.83 83.175 67.83H72.905C72.735 67.83 72.605 67.97 72.61 68.14C72.75 70.79 73.375 73.005 74.49 74.785C75.64 76.635 77.12 78.125 78.915 79.255C80.705 80.38 82.76 81.185 85.07 81.665C87.375 82.15 89.735 82.395 92.15 82.395C94.505 82.395 96.825 82.16 99.105 81.71C101.385 81.255 103.41 80.46 105.18 79.33C106.95 78.205 108.385 76.72 109.48 74.865C110.58 73.02 111.13 70.72 111.13 67.99C111.15 66.07 110.775 64.445 110.025 63.13Z" fill="#1F1914"/>
<path d="M278.605 48.085C280.49 47.895 281.96 46.305 281.96 44.37V40.89C281.96 40.73 281.83 40.6 281.67 40.6H273.765V28.72C273.765 26.785 272.295 25.195 270.41 25.005H263.145C262.825 25.005 262.565 25.265 262.565 25.585V40.6H257.24C257.08 40.6 256.95 40.73 256.95 40.89V47.8C256.95 47.96 257.08 48.09 257.24 48.09H262.565V72.15C262.565 74.19 262.91 75.85 263.585 77.11C264.275 78.37 265.21 79.34 266.385 80.03C267.56 80.705 268.945 81.17 270.48 81.415C272.035 81.64 273.68 81.76 275.405 81.76C276.51 81.76 277.65 81.745 278.81 81.69C279.855 81.625 280.825 81.535 281.71 81.4C281.85 81.38 281.955 81.255 281.955 81.11V73.2C281.955 73.03 281.815 72.9 281.645 72.91C280.415 72.99 275.86 73.2 274.69 72.06C274.06 71.445 273.755 70.175 273.755 68.275V48.085H278.605Z" fill="#1F1914"/>
</svg>
